<?xml version="1.0" encoding="UTF-8"?><svg id="Layer_1" xmlns="http://www.w3.org/2000/svg" width="289.12" height="289.12" viewBox="0 0 289.12 289.12"><defs><style>.cls-1{fill:#fff;}</style></defs><path d="M144.56,288.81c-38.53,0-74.75-15.01-102-42.25S.31,183.09.31,144.57,15.32,69.81,42.56,42.57,106.03.32,144.56.32s74.75,15.01,101.99,42.25c27.25,27.25,42.25,63.46,42.25,102s-15.01,74.75-42.25,101.99c-27.25,27.25-63.46,42.25-101.99,42.25Z"/><path d="M144.56.63c19.43,0,38.28,3.81,56.02,11.31,17.14,7.25,32.53,17.62,45.75,30.85,13.22,13.22,23.6,28.61,30.85,45.75,7.5,17.74,11.31,36.59,11.31,56.02s-3.81,38.28-11.31,56.02c-7.25,17.14-17.62,32.53-30.85,45.75-13.22,13.22-28.61,23.6-45.75,30.85-17.74,7.5-36.59,11.31-56.02,11.31s-38.28-3.81-56.02-11.31c-17.14-7.25-32.53-17.62-45.75-30.85-13.22-13.22-23.6-28.61-30.85-45.75C4.43,182.85.63,164,.63,144.57s3.81-38.28,11.31-56.02c7.25-17.14,17.62-32.53,30.85-45.75,13.22-13.22,28.61-23.6,45.75-30.85C106.28,4.44,125.13.63,144.56.63M144.56,0C64.72,0,0,64.72,0,144.56s64.72,144.56,144.56,144.56,144.56-64.72,144.56-144.56S224.4,0,144.56,0h0Z"/><path class="cls-1" d="M70.99,135.72c-1.48,0-2.69,1.32-2.69,2.94v16.19c0,1.62,1.2,2.94,2.69,2.94s2.69-1.32,2.69-2.94v-16.19c0-1.62-1.2-2.94-2.69-2.94Z"/><path class="cls-1" d="M83.25,127.32c-1.48,0-2.69,1.3-2.69,2.9v33.58c0,1.6,1.2,2.9,2.69,2.9s2.69-1.3,2.69-2.9v-33.58c0-1.6-1.2-2.9-2.69-2.9ZM83.25,127.84h0c-.15,0-.29.02-.43.05.14-.03.29-.05.43-.05ZM82.82,166.15c.14.03.29.05.43.05h0c-.15,0-.29-.02-.43-.05Z"/><path class="cls-1" d="M107.78,138.94c-1.48,0-2.69,1.3-2.69,2.9v9.87c0,1.6,1.2,2.9,2.69,2.9s2.69-1.3,2.69-2.9v-9.87c0-1.6-1.2-2.9-2.69-2.9ZM106.94,153.91c.26.12.54.19.84.19h0c-.3,0-.58-.07-.84-.19Z"/><path class="cls-1" d="M95.51,135.04c-1.48,0-2.69,1.3-2.69,2.9v17.11c0,1.6,1.2,2.9,2.69,2.9s2.69-1.3,2.69-2.9v-17.11c0-1.6-1.2-2.9-2.69-2.9ZM96.35,135.74c-.26-.12-.54-.19-.84-.19h0c.3,0,.58.07.84.19ZM95.51,157.44h0c.3,0,.58-.07.84-.19-.26.12-.54.19-.84.19Z"/><path class="cls-1" d="M120.03,128.78c-1.48,0-2.69,1.3-2.69,2.9v30.99c0,1.6,1.2,2.9,2.69,2.9s2.69-1.3,2.69-2.9v-30.99c0-1.6-1.2-2.9-2.69-2.9ZM120.03,129.3h0c-.15,0-.29.02-.43.05.14-.03.29-.05.43-.05ZM118.51,164.37c.2.22.42.39.68.51-.26-.12-.49-.3-.68-.51ZM119.6,165.02c.14.03.29.05.43.05h0c-.15,0-.29-.02-.43-.05ZM121.01,164.8c.2-.11.39-.25.54-.42-.16.17-.34.31-.54.42ZM121.82,164.02c.15-.25.27-.55.32-.86-.06.31-.17.6-.32.86Z"/><path class="cls-1" d="M132.12,112.51c-1.5,0-2.73,1.32-2.73,2.95v59.69c0,1.62,1.22,2.95,2.73,2.95s2.73-1.32,2.73-2.95v-59.69c0-1.62-1.22-2.95-2.73-2.95h0ZM132.12,113.03h0c-.3,0-.59.07-.85.19.26-.12.55-.19.85-.19ZM130.47,176.71c.08.11.18.21.27.3-.1-.09-.19-.19-.27-.3ZM131.27,177.38c.26.12.55.19.85.19h0c-.3,0-.59-.07-.85-.19ZM133.93,176.5c-.12.2-.27.36-.43.51.16-.15.31-.32.43-.51.16-.26.27-.55.33-.87-.06.32-.17.61-.33.87Z"/><path class="cls-1" d="M181.87,137.68c-1.5,0-2.73,1.32-2.73,2.95v10.01c0,1.62,1.22,2.95,2.73,2.95s2.73-1.32,2.73-2.95v-10.01c0-1.62-1.22-2.95-2.73-2.95ZM180.65,152.65c-.23-.17-.43-.4-.59-.65-.23-.39-.37-.85-.37-1.36v-10.01c0-.5.14-.97.37-1.35.16-.26.36-.48.59-.65s.49-.3.78-.36c-.29.06-.55.19-.78.36s-.43.4-.59.65c-.23.39-.37.85-.37,1.35v10.01c0,.5.14.97.37,1.36.16.26.36.48.59.65s.49.3.78.36c-.29-.06-.55-.19-.78-.36ZM184.05,143.01v7.64c0,.5-.14.97-.37,1.36-.16.26-.36.48-.59.65.23-.17.43-.4.59-.65.23-.39.37-.85.37-1.36v-10.01c0-.5-.14-.97-.37-1.35.23.39.37.85.37,1.35v2.37h0Z"/><path class="cls-1" d="M169.43,127.38c-1.5,0-2.73,1.32-2.73,2.95v31.44c0,1.62,1.22,2.95,2.73,2.95s2.73-1.32,2.73-2.95v-31.44c0-1.62-1.22-2.95-2.73-2.95ZM167.25,161.77v-31.44c0-.5.14-.97.37-1.36-.23.39-.37.85-.37,1.36v31.44c0,.5.14.97.37,1.35-.23-.39-.37-.85-.37-1.35Z"/><path class="cls-1" d="M157,113.2c-1.5,0-2.73,1.32-2.73,2.95v59.69c0,1.62,1.22,2.95,2.73,2.95s2.73-1.32,2.73-2.95v-59.69c0-1.62-1.22-2.95-2.73-2.95ZM155.78,177.84c-.23-.17-.43-.4-.59-.65-.23-.39-.37-.85-.37-1.36v-59.69c0-.5.14-.97.37-1.35.16-.26.36-.48.59-.65s.49-.3.78-.36c-.29.06-.55.19-.78.36s-.43.4-.59.65c-.23.39-.37.85-.37,1.35v59.69c0,.5.14.97.37,1.36.16.26.36.48.59.65s.49.3.78.36c-.29-.06-.55-.19-.78-.36h0Z"/><path class="cls-1" d="M144.56,95.59c-1.5,0-2.73,1.32-2.73,2.95v92.3c0,1.62,1.22,2.95,2.73,2.95s2.73-1.32,2.73-2.95v-92.31c0-1.62-1.22-2.95-2.73-2.95h0ZM146.37,97.18c-.16-.26-.36-.48-.59-.65.23.17.43.4.59.65ZM144.56,96.11h0c-.3,0-.59.07-.85.19.26-.12.55-.19.85-.19ZM143.71,193.06c.26.12.55.19.85.19h0c-.3,0-.59-.07-.85-.19ZM145.78,192.84c.23-.17.43-.4.59-.65-.16.26-.36.48-.59.65Z"/><path class="cls-1" d="M194.31,134c-1.5,0-2.73,1.32-2.73,2.95v16.15c0,1.62,1.22,2.95,2.73,2.95s2.73-1.32,2.73-2.95v-16.15c0-1.62-1.22-2.95-2.73-2.95h0ZM193.46,155.33c-.26-.12-.49-.3-.69-.52-.39-.44-.64-1.05-.64-1.71v-16.15c0-.67.24-1.27.64-1.71.2-.22.43-.4.69-.52.26-.12.55-.19.85-.19-.3,0-.59.07-.85.19-.26.12-.49.3-.69.52-.39.44-.64,1.05-.64,1.71v16.15c0,.67.24,1.27.64,1.71.2.22.43.4.69.52.26.12.55.19.85.19-.3,0-.59-.07-.85-.19h0Z"/><path class="cls-1" d="M219.18,133.56c-1.5,0-2.73,1.31-2.73,2.92v17.19c0,1.61,1.22,2.92,2.73,2.92s2.73-1.31,2.73-2.92v-17.19c0-1.61-1.22-2.92-2.73-2.92ZM219.18,134.08h0c-.3,0-.59.07-.85.19.26-.12.55-.19.85-.19ZM218.34,155.89c.26.12.55.19.85.19h0c-.3,0-.59-.07-.85-.19Z"/><path class="cls-1" d="M206.75,126.28c-1.5,0-2.73,1.32-2.73,2.95v34.07c0,1.62,1.22,2.95,2.73,2.95s2.73-1.32,2.73-2.95v-34.07c0-1.62-1.22-2.95-2.73-2.95ZM206.75,126.8h0c-.15,0-.3.02-.44.05.14-.03.29-.05.44-.05ZM208.29,165.01c-.39.44-.94.71-1.54.71h0c-.6,0-1.15-.27-1.54-.71.39.44.94.71,1.54.71h0c.6,0,1.15-.27,1.54-.71.2-.22.36-.48.47-.77-.11.29-.27.55-.47.77Z"/><path class="cls-1" d="M229.56,135.16l-.17,18.96c21.74,4.71,22.44,19.78,16.88,35.13,0,0-2.97,6.99-4.48,9.87-8.87,16.93-21.34,30.35-37.41,40.28-16.08,9.93-34.92,14.89-56.53,14.89s-40.18-4.97-56.26-14.89c-16.08-9.93-28.59-23.36-37.55-40.28-4.48-8.46-7.81-17.41-10.05-26.83-11.93-1.03-21.45-5.19-28.11-11.68,1.9,18.43,7.35,33.83,16.41,49.35,11.45,19.63,27.2,35.09,47.25,46.37,20.05,11.28,42.81,16.92,68.32,16.92s48.5-5.64,68.45-16.92c19.95-11.28,36.14-26.48,47.11-46.37,21.23-38.48,7.23-74.78-33.85-74.78h-.01Z"/><path class="cls-1" d="M59.55,153.96l.17-18.96c-21.74-4.71-22.44-19.78-16.88-35.13,0,0,2.97-6.99,4.48-9.87,8.87-16.93,21.34-30.35,37.41-40.28,16.08-9.93,34.92-14.89,56.53-14.89s40.18,4.97,56.26,14.89c16.08,9.93,28.59,23.36,37.55,40.28,4.48,8.46,7.81,17.41,10.05,26.83,11.93,1.03,21.45,5.19,28.11,11.68-1.9-18.43-7.35-33.83-16.41-49.35-11.45-19.63-27.2-35.09-47.25-46.37-20.05-11.28-42.81-16.92-68.32-16.92s-48.5,5.64-68.45,16.92c-19.95,11.28-36.14,26.48-47.11,46.37-21.23,38.48-7.23,74.78,33.85,74.78h.01Z"/></svg>