<?xml version="1.0" encoding="UTF-8"?>
<svg id="Layer_1" xmlns="http://www.w3.org/2000/svg" version="1.1" viewBox="0 0 895.42 167.83">
  <!-- Generator: Adobe Illustrator 30.3.0, SVG Export Plug-In . SVG Version: 2.1.3 Build 157)  -->
  <defs>
    <style>
      .st0 {
        display: none;
        fill: #fff;
      }
    </style>
  </defs>
  <circle class="st0" cx="-1308.19" cy="-665.21" r="187.75"/>
  <g>
    <path d="M34.08,78.7c-.92,0-1.66.86-1.66,1.91v10.49c0,1.05.75,1.91,1.66,1.91s1.66-.86,1.66-1.91v-10.49c0-1.05-.75-1.91-1.66-1.91Z"/>
    <path d="M41.66,73.25c-.92,0-1.66.84-1.66,1.88v21.77c0,1.04.75,1.88,1.66,1.88s1.66-.84,1.66-1.88v-21.77c0-1.04-.75-1.88-1.66-1.88ZM41.66,73.58h0c-.09,0-.18.01-.27.03.09-.02.18-.03.27-.03ZM41.4,98.41c.09.02.18.03.27.03h0c-.09,0-.18-.01-.27-.03Z"/>
    <path d="M56.83,80.78c-.92,0-1.66.84-1.66,1.88v6.4c0,1.04.75,1.88,1.66,1.88s1.66-.84,1.66-1.88v-6.4c0-1.04-.75-1.88-1.66-1.88ZM56.31,90.48c.16.08.33.12.52.12h0c-.18,0-.36-.04-.52-.12Z"/>
    <path d="M49.25,78.25c-.92,0-1.66.84-1.66,1.88v11.09c0,1.04.75,1.88,1.66,1.88s1.66-.84,1.66-1.88v-11.09c0-1.04-.75-1.88-1.66-1.88ZM49.76,78.71c-.16-.08-.33-.12-.52-.12h0c.18,0,.36.04.52.12ZM49.25,92.77h0c.18,0,.36-.04.52-.12-.16.08-.33.12-.52.12Z"/>
    <path d="M64.41,74.2c-.92,0-1.66.84-1.66,1.88v20.09c0,1.04.75,1.88,1.66,1.88s1.66-.84,1.66-1.88v-20.09c0-1.04-.75-1.88-1.66-1.88ZM64.41,74.53h0c-.09,0-.18.01-.27.03.09-.02.18-.03.27-.03ZM63.47,97.26c.12.14.26.25.42.33-.16-.08-.3-.19-.42-.33ZM64.14,97.68c.09.02.18.03.27.03h0c-.09,0-.18-.01-.27-.03ZM65.02,97.54c.12-.07.24-.16.33-.28-.1.11-.21.2-.33.28ZM65.51,97.03c.1-.16.16-.35.2-.55-.04.2-.1.39-.2.55Z"/>
    <g>
      <path d="M520.88,6.85c-9.8-4.56-21.12-6.85-33.96-6.85-14.3,0-27.23,3.08-38.77,9.23-9.56,5.09-16.73,12.59-21.54,22.49V2.16h-14.87v161.2h15.2V59.11c0-9.42,2.48-17.64,7.43-24.66,4.95-7.02,11.74-12.49,20.36-16.44,8.62-3.94,18.33-5.91,29.14-5.91,15.77,0,28.52,4.16,38.26,12.47,9.74,8.32,14.61,19.39,14.61,33.23v105.54h15.37V57.1c0-11.92-2.76-22.13-8.28-30.64-5.52-8.51-13.18-15.04-22.98-19.61Z"/>
      <path d="M726.48,10.74c-12.16-7.16-26.07-10.74-41.73-10.74s-29.42,3.58-41.64,10.74c-12.22,7.16-21.82,17.01-28.8,29.56-6.98,12.54-10.47,26.89-10.47,43.04s3.49,30.49,10.47,43.04c6.98,12.54,16.58,22.42,28.8,29.63,12.22,7.21,26.1,10.81,41.64,10.81s29.56-3.6,41.73-10.81c12.16-7.21,21.74-17.09,28.72-29.63,6.98-12.54,10.47-26.89,10.47-43.04s-3.49-30.37-10.47-42.97c-6.98-12.59-16.56-22.47-28.72-29.63ZM742.02,119.45c-5.41,10.81-13.01,19.39-22.81,25.74-9.8,6.34-21.29,9.52-34.46,9.52s-24.5-3.17-34.29-9.52c-9.8-6.34-17.43-14.92-22.89-25.74-5.46-10.81-8.19-22.85-8.19-36.12s2.73-25.25,8.19-35.97c5.46-10.72,13.09-19.27,22.89-25.66,9.8-6.39,21.23-9.59,34.29-9.59s24.67,3.17,34.46,9.52c9.8,6.34,17.4,14.92,22.81,25.74,5.41,10.81,8.11,22.81,8.11,35.97s-2.7,25.3-8.11,36.12Z"/>
      <path d="M891.62.07c-1.3-.05-2.62-.07-3.97-.07-12.39,0-23.46,2.52-33.2,7.57-9.74,5.05-16.7,11.7-20.86,19.97h-1.35V2.16h-14.87v161.2h15.2V57.67c0-8.75,2.34-16.48,7.01-23.21,4.67-6.73,11.09-12.01,19.26-15.86,8.16-3.84,17.43-5.77,27.79-5.77,2.03,0,3.83.07,5.41.22,1.58.14,2.7.22,3.38.22V.14c-1.24,0-2.51-.02-3.8-.07Z"/>
    </g>
    <path d="M323.49,11.76c-12.16-7.16-26.07-10.74-41.73-10.74s-29.42,3.58-41.64,10.74c-12.22,7.16-21.82,17.01-28.8,29.56-6.98,12.54-10.47,26.89-10.47,43.04s3.49,30.49,10.47,43.04c6.98,12.54,16.58,22.42,28.8,29.63,12.22,7.21,26.1,10.81,41.64,10.81s29.56-3.6,41.73-10.81c12.16-7.21,21.74-17.09,28.72-29.63,6.98-12.54,10.47-26.89,10.47-43.04s-3.49-30.37-10.47-42.97c-6.98-12.59-16.56-22.47-28.72-29.63ZM339.03,120.47c-5.41,10.81-13.01,19.39-22.81,25.74-9.8,6.34-21.29,9.52-34.46,9.52s-24.5-3.17-34.29-9.52c-9.8-6.34-17.43-14.92-22.89-25.74-5.46-10.81-8.19-22.85-8.19-36.12s2.73-25.25,8.19-35.97c5.46-10.72,13.09-19.27,22.89-25.66,9.8-6.39,21.23-9.59,34.29-9.59s24.67,3.17,34.46,9.52,17.4,14.92,22.81,25.74c5.41,10.81,8.11,22.81,8.11,35.97s-2.7,25.3-8.11,36.12Z"/>
    <g>
      <path d="M71.88,63.65c-.93,0-1.69.86-1.69,1.91v38.69c0,1.05.76,1.91,1.69,1.91s1.69-.86,1.69-1.91v-38.69c0-1.05-.76-1.91-1.69-1.91ZM71.88,63.99h0c-.19,0-.36.04-.52.12.16-.08.34-.12.52-.12ZM70.86,105.27c.05.07.11.14.17.19-.06-.06-.12-.12-.17-.19ZM71.36,105.7c.16.08.34.12.52.12h0c-.19,0-.36-.04-.52-.12ZM73,105.13c-.07.13-.17.23-.27.33.1-.1.19-.2.27-.33.1-.17.17-.36.2-.56-.04.2-.11.39-.2.56Z"/>
      <path d="M102.65,79.97c-.93,0-1.69.86-1.69,1.91v6.49c0,1.05.76,1.91,1.69,1.91s1.69-.86,1.69-1.91v-6.49c0-1.05-.76-1.91-1.69-1.91ZM101.9,89.67c-.14-.11-.27-.26-.36-.42-.15-.25-.23-.55-.23-.88v-6.49c0-.33.08-.63.23-.88.1-.17.22-.31.36-.42.14-.11.31-.19.48-.24-.18.04-.34.12-.48.24-.14.11-.27.26-.36.42-.15.25-.23.55-.23.88v6.49c0,.33.08.63.23.88.1.17.22.31.36.42.14.11.31.19.48.24-.18-.04-.34-.12-.48-.24ZM104,83.41v4.95c0,.33-.08.63-.23.88-.1.17-.22.31-.36.42.14-.11.27-.26.36-.42.15-.25.23-.55.23-.88v-6.49c0-.33-.08-.63-.23-.88.15.25.23.55.23.88v1.54Z"/>
      <path d="M94.96,73.29c-.93,0-1.69.86-1.69,1.91v20.38c0,1.05.76,1.91,1.69,1.91s1.69-.86,1.69-1.91v-20.38c0-1.05-.76-1.91-1.69-1.91ZM93.61,95.58v-20.38c0-.33.08-.63.23-.88-.15.25-.23.55-.23.88v20.38c0,.33.08.63.23.88-.15-.25-.23-.55-.23-.88Z"/>
      <path d="M87.27,64.09c-.93,0-1.69.86-1.69,1.91v38.69c0,1.05.76,1.91,1.69,1.91s1.69-.86,1.69-1.91v-38.69c0-1.05-.76-1.91-1.69-1.91ZM86.51,106c-.14-.11-.27-.26-.36-.42-.15-.25-.23-.55-.23-.88v-38.69c0-.33.08-.63.23-.88.1-.17.22-.31.36-.42.14-.11.31-.19.48-.24-.18.04-.34.12-.48.24-.14.11-.27.26-.36.42-.15.25-.23.55-.23.88v38.69c0,.33.08.63.23.88.1.17.22.31.36.42.14.11.31.19.48.24-.18-.04-.34-.12-.48-.24Z"/>
      <path d="M79.58,52.68c-.93,0-1.69.86-1.69,1.91v59.83c0,1.05.76,1.91,1.69,1.91s1.69-.86,1.69-1.91v-59.83c0-1.05-.76-1.91-1.69-1.91ZM80.69,53.71c-.1-.17-.22-.31-.36-.42.14.11.27.26.36.42ZM79.58,53.02h0c-.19,0-.36.04-.52.12.16-.08.34-.12.52-.12ZM79.05,115.86c.16.08.34.12.52.12h0c-.19,0-.36-.04-.52-.12ZM80.33,115.72c.14-.11.27-.26.36-.42-.1.17-.22.31-.36.42Z"/>
      <path d="M110.34,77.58c-.93,0-1.69.86-1.69,1.91v10.47c0,1.05.76,1.91,1.69,1.91s1.69-.86,1.69-1.91v-10.47c0-1.05-.76-1.91-1.69-1.91ZM109.82,91.4c-.16-.08-.31-.19-.43-.34-.24-.28-.39-.68-.39-1.11v-10.47c0-.43.15-.83.39-1.11.12-.14.27-.26.43-.34.16-.08.34-.12.52-.12-.19,0-.36.04-.52.12-.16.08-.31.19-.43.34-.24.28-.39.68-.39,1.11v10.47c0,.43.15.83.39,1.11.12.14.27.26.43.34.16.08.34.12.52.12-.19,0-.36-.04-.52-.12Z"/>
      <path d="M125.72,77.29c-.93,0-1.69.85-1.69,1.9v11.15c0,1.04.76,1.9,1.69,1.9s1.69-.85,1.69-1.9v-11.15c0-1.04-.76-1.9-1.69-1.9ZM125.72,77.63h0c-.19,0-.36.04-.52.12.16-.08.34-.12.52-.12ZM125.2,91.77c.16.08.34.12.52.12h0c-.19,0-.36-.04-.52-.12Z"/>
      <path d="M118.03,72.57c-.93,0-1.69.86-1.69,1.91v22.08c0,1.05.76,1.91,1.69,1.91s1.69-.86,1.69-1.91v-22.08c0-1.05-.76-1.91-1.69-1.91ZM118.03,72.91h0c-.09,0-.18.01-.27.03.09-.02.18-.03.27-.03ZM118.99,97.68c-.24.28-.58.46-.95.46h0c-.37,0-.71-.18-.95-.46.24.28.58.46.95.46h0c.37,0,.71-.18.95-.46.12-.14.22-.31.29-.5-.07.19-.17.36-.29.5Z"/>
      <path d="M132.14,78.33l-.1,12.29c13.45,3.05,13.88,12.82,10.44,22.77,0,0-1.84,4.53-2.77,6.4-5.48,10.97-13.2,19.67-23.14,26.11-9.94,6.44-21.59,9.65-34.96,9.65s-24.85-3.22-34.79-9.65c-9.94-6.44-17.68-15.14-23.22-26.11-2.77-5.48-4.83-11.29-6.22-17.39-7.38-.66-13.27-3.37-17.38-7.57,1.17,11.95,4.55,21.93,10.15,31.98,7.08,12.72,16.82,22.74,29.22,30.06,12.4,7.31,26.48,10.97,42.24,10.97s29.99-3.66,42.33-10.97c12.34-7.31,22.35-17.17,29.13-30.06,13.13-24.94,4.47-48.48-20.93-48.48Z"/>
      <path d="M27.01,90.52l.1-12.29c-13.45-3.05-13.88-12.82-10.44-22.77,0,0,1.84-4.53,2.77-6.4,5.48-10.97,13.2-19.67,23.14-26.11,9.94-6.44,21.59-9.65,34.96-9.65,13.25,0,24.85,3.22,34.79,9.65,9.94,6.44,17.68,15.14,23.22,26.11,2.77,5.48,4.83,11.29,6.22,17.39,7.38.66,13.27,3.37,17.38,7.57-1.17-11.95-4.55-21.93-10.15-31.98-7.08-12.72-16.82-22.74-29.22-30.06-12.4-7.31-26.48-10.97-42.24-10.97-15.88,0-29.99,3.66-42.33,10.97-12.34,7.31-22.35,17.17-29.13,30.06-13.13,24.94-4.47,48.48,20.93,48.48Z"/>
    </g>
  </g>
</svg>