<?xml version="1.0" encoding="UTF-8"?>
<svg id="Layer_1" xmlns="http://www.w3.org/2000/svg" version="1.1" viewBox="0 0 300 300">
  <!-- Generator: Adobe Illustrator 30.3.0, SVG Export Plug-In . SVG Version: 2.1.3 Build 157)  -->
  <path d="M64.25,139.7c-1.73,0-3.14,1.54-3.14,3.43v18.87c0,1.89,1.41,3.43,3.14,3.43s3.14-1.54,3.14-3.43v-18.87c0-1.89-1.41-3.43-3.14-3.43Z"/>
  <path d="M78.54,129.9c-1.73,0-3.14,1.52-3.14,3.39v39.15c0,1.87,1.41,3.39,3.14,3.39s3.14-1.52,3.14-3.39v-39.15c0-1.87-1.41-3.39-3.14-3.39ZM78.54,130.5h0c-.17,0-.34.02-.5.06.16-.04.33-.06.5-.06ZM78.03,175.16c.16.04.33.06.5.06h0c-.17,0-.34-.02-.5-.06Z"/>
  <path d="M107.12,143.44c-1.73,0-3.14,1.52-3.14,3.39v11.5c0,1.87,1.41,3.39,3.14,3.39s3.14-1.52,3.14-3.39v-11.5c0-1.87-1.41-3.39-3.14-3.39ZM106.15,160.9c.3.14.63.22.98.22h0c-.35,0-.68-.08-.97-.22Z"/>
  <path d="M92.83,138.9c-1.73,0-3.14,1.52-3.14,3.39v19.94c0,1.87,1.41,3.39,3.14,3.39s3.14-1.52,3.14-3.39v-19.94c0-1.87-1.41-3.39-3.14-3.39ZM93.81,139.72c-.3-.14-.63-.22-.97-.22h0c.35,0,.68.08.97.22ZM92.83,165.01h0c.35,0,.68-.08.97-.22-.3.14-.63.22-.97.22Z"/>
  <path d="M121.42,131.61c-1.73,0-3.14,1.52-3.14,3.39v36.13c0,1.87,1.41,3.39,3.14,3.39s3.14-1.52,3.14-3.39v-36.13c0-1.87-1.41-3.39-3.14-3.39ZM121.42,132.21h0c-.17,0-.34.02-.5.06.16-.04.33-.06.5-.06ZM119.64,173.09c.23.25.5.46.8.6-.3-.14-.57-.34-.8-.6ZM120.91,173.85c.16.04.33.06.5.06h0c-.17,0-.34-.02-.5-.06ZM122.55,173.59c.23-.13.45-.29.63-.5-.18.2-.4.36-.63.5ZM123.49,172.68c.18-.3.31-.63.38-1-.07.36-.2.7-.38,1Z"/>
  <g>
    <path d="M135.5,112.64c-1.75,0-3.18,1.54-3.18,3.43v69.58c0,1.89,1.43,3.43,3.18,3.43s3.18-1.54,3.18-3.43v-69.58c0-1.89-1.43-3.43-3.18-3.43ZM135.5,113.25h0c-.35,0-.69.08-.99.22.3-.14.64-.22.99-.22ZM133.58,187.48c.1.13.2.24.32.35-.12-.11-.22-.22-.32-.35ZM134.51,188.26c.3.14.64.22.99.22h0c-.35,0-.69-.08-.99-.22ZM137.61,187.23c-.14.23-.31.42-.5.59.19-.17.36-.37.5-.59.18-.3.31-.64.38-1.01-.07.37-.2.71-.38,1.01Z"/>
    <path d="M193.49,141.98c-1.75,0-3.18,1.54-3.18,3.43v11.67c0,1.89,1.43,3.43,3.18,3.43s3.18-1.54,3.18-3.43v-11.67c0-1.89-1.43-3.43-3.18-3.43ZM192.07,159.43c-.27-.2-.5-.46-.69-.76-.27-.45-.43-.99-.43-1.58v-11.67c0-.58.16-1.13.43-1.58.18-.3.42-.56.69-.76.27-.2.58-.35.91-.42-.33.08-.64.22-.91.42-.27.2-.5.46-.69.76-.27.45-.43.99-.43,1.58v11.67c0,.58.16,1.13.43,1.58.18.3.42.56.69.76.27.2.58.35.91.42-.33-.08-.64-.22-.91-.42ZM196.04,148.18v8.91c0,.58-.16,1.13-.43,1.58-.18.3-.42.56-.69.76.27-.2.5-.46.69-.76.27-.45.43-.99.43-1.58v-11.67c0-.58-.16-1.13-.43-1.58.27.45.43.99.43,1.58v2.76Z"/>
    <path d="M179,129.98c-1.75,0-3.18,1.54-3.18,3.43v36.65c0,1.89,1.43,3.43,3.18,3.43s3.18-1.54,3.18-3.43v-36.65c0-1.89-1.43-3.43-3.18-3.43ZM176.46,170.06v-36.65c0-.58.16-1.13.43-1.58-.27.45-.43.99-.43,1.58v36.65c0,.58.16,1.13.43,1.58-.27-.45-.43-.99-.43-1.58Z"/>
    <path d="M164.5,113.44c-1.75,0-3.18,1.54-3.18,3.43v69.58c0,1.89,1.43,3.43,3.18,3.43s3.18-1.54,3.18-3.43v-69.58c0-1.89-1.43-3.43-3.18-3.43ZM163.08,188.79c-.27-.2-.5-.46-.69-.76-.27-.45-.43-.99-.43-1.58v-69.58c0-.58.16-1.13.43-1.58.18-.3.42-.56.69-.76.27-.2.58-.35.91-.42-.33.08-.64.22-.91.42-.27.2-.5.46-.69.76-.27.45-.43.99-.43,1.58v69.58c0,.58.16,1.13.43,1.58.18.3.42.56.69.76.27.2.58.35.91.42-.33-.08-.64-.22-.91-.42Z"/>
    <path d="M150,92.91c-1.75,0-3.18,1.54-3.18,3.43v107.59c0,1.89,1.43,3.43,3.18,3.43s3.18-1.54,3.18-3.43v-107.59c0-1.89-1.43-3.43-3.18-3.43ZM152.11,94.77c-.18-.3-.42-.56-.69-.76.27.2.5.46.69.76ZM150,93.52h0c-.35,0-.69.08-.99.22.3-.14.64-.22.99-.22ZM149.01,206.54c.3.14.64.22.99.22h0c-.35,0-.69-.08-.99-.22ZM151.42,206.28c.27-.2.5-.46.69-.76-.18.3-.42.56-.69.76Z"/>
    <path d="M207.99,137.69c-1.75,0-3.18,1.54-3.18,3.43v18.82c0,1.89,1.43,3.43,3.18,3.43s3.18-1.54,3.18-3.43v-18.82c0-1.89-1.43-3.43-3.18-3.43ZM207,162.55c-.3-.14-.58-.35-.81-.61-.46-.51-.74-1.22-.74-2v-18.82c0-.78.28-1.49.74-2,.23-.26.5-.46.81-.61.3-.14.64-.22.99-.22-.35,0-.69.08-.99.22-.3.14-.58.35-.81.61-.46.51-.74,1.22-.74,2v18.82c0,.78.28,1.49.74,2,.23.26.5.46.81.61.3.14.64.22.99.22-.35,0-.69-.08-.99-.22Z"/>
    <path d="M236.99,137.17c-1.75,0-3.18,1.53-3.18,3.41v20.04c0,1.88,1.43,3.41,3.18,3.41s3.18-1.53,3.18-3.41v-20.04c0-1.88-1.43-3.41-3.18-3.41ZM236.99,137.78h0c-.35,0-.69.08-.99.22.3-.14.64-.22.99-.22ZM236,163.2c.3.14.64.22.99.22h0c-.35,0-.69-.08-.99-.22Z"/>
    <path d="M222.49,128.69c-1.75,0-3.18,1.54-3.18,3.43v39.71c0,1.89,1.43,3.43,3.18,3.43s3.18-1.54,3.18-3.43v-39.71c0-1.89-1.43-3.43-3.18-3.43ZM222.49,129.3h0c-.18,0-.35.02-.51.06.17-.04.34-.06.51-.06ZM224.29,173.83c-.46.51-1.1.83-1.8.83h0c-.7,0-1.34-.32-1.8-.83.46.51,1.1.83,1.8.83h0c.7,0,1.34-.32,1.8-.83.23-.26.42-.56.54-.9-.13.34-.31.64-.54.9Z"/>
    <path d="M249.09,139.04l-.2,22.1c25.34,5.49,26.16,23.05,19.68,40.95,0,0-3.46,8.15-5.22,11.5-10.34,19.73-24.87,35.38-43.61,46.95-18.74,11.57-40.7,17.36-65.9,17.36s-46.84-5.79-65.58-17.36c-18.74-11.57-33.33-27.22-43.77-46.95-5.22-9.86-9.11-20.3-11.72-31.28-13.91-1.19-25.01-6.06-32.77-13.62,2.21,21.48,8.57,39.43,19.13,57.52,13.35,22.88,31.71,40.9,55.08,54.05,23.37,13.15,49.91,19.73,79.63,19.73s56.53-6.58,79.79-19.73c23.26-13.15,42.13-30.87,54.92-54.05,24.74-44.86,8.43-87.18-39.46-87.18Z"/>
    <path d="M50.91,160.96l.2-22.1c-25.34-5.49-26.16-23.05-19.68-40.95,0,0,3.46-8.15,5.22-11.5,10.34-19.73,24.87-35.38,43.61-46.95,18.74-11.57,40.7-17.36,65.9-17.36,24.98,0,46.84,5.79,65.58,17.36,18.74,11.57,33.33,27.22,43.77,46.95,5.22,9.86,9.11,20.3,11.72,31.28,13.91,1.19,25.01,6.06,32.77,13.62-2.21-21.48-8.57-39.43-19.13-57.52-13.35-22.88-31.71-40.9-55.08-54.05C202.43,6.58,175.88,0,146.17,0c-29.93,0-56.53,6.58-79.79,19.73-23.26,13.15-42.13,30.87-54.92,54.05-24.74,44.86-8.43,87.18,39.46,87.18Z"/>
  </g>
</svg>